# xmcd
#
# Track frame offsets:
#	150
#	12600
#	29196
#	45867
#	63186
#	81542
#	110051
#	136176
#	147944
#	173032
#	205404
#
# Disc length: 2949 seconds
#
# Revision: 1
# Processed by: cddbd v1.5.2PL0 Copyright (c) Steve Scherf et al.
# Submitted via: EZCDAudioConverter 8.0.2.1
#
DISCID=9f0b830b
DTITLE=Quốc Phòng - Chèo. Đường Trường Chông Chênh
DYEAR=2011
DGENRE=Contemporary Pop
TTITLE0=NSƯT Thúy Mùi - Lời giới thiệu
TTITLE1=Quốc Phòng - Sa lệch chênh
TTITLE2=Quốc Phòng - Đào liễu
TTITLE3=Quốc Phòng, NSƯT Minh Phương - Sử chuyện
TTITLE4=Quốc Phòng - Trinh phụ
TTITLE5=Quốc Phòng, NSƯT Minh Phương - Tình thư hạ vị
TTITLE6=Quốc Phòng - Tò vò
TTITLE7=Quốc Phòng - Đường trường vị thủy
TTITLE8=Quốc Phòng, Phương Mây - Quân tử vu dịch
TTITLE9=Quốc Phòng - Đường trường trong rừng
TTITLE10=Quốc Phòng, NSƯT Thu huyền - Duyên phận phải chiều
EXTD=
EXTT0=
EXTT1=
EXTT2=
EXTT3=
EXTT4=
EXTT5=
EXTT6=
EXTT7=
EXTT8=
EXTT9=
EXTT10=
PLAYORDER=
